<svg xmlns="http://www.w3.org/2000/svg" viewBox="0 0 400 400">
  <defs>
    <linearGradient id="purpleMain" x1="0%" y1="0%" x2="100%" y2="100%">
      <stop offset="0%" style="stop-color:#B794F6;stop-opacity:1" />
      <stop offset="40%" style="stop-color:#9B59B6;stop-opacity:1" />
      <stop offset="60%" style="stop-color:#8E44AD;stop-opacity:1" />
      <stop offset="100%" style="stop-color:#6C3483;stop-opacity:1" />
    </linearGradient>
    <linearGradient id="purpleTop" x1="0%" y1="0%" x2="0%" y2="100%">
      <stop offset="0%" style="stop-color:#D4B5F6;stop-opacity:1" />
      <stop offset="100%" style="stop-color:#9B59B6;stop-opacity:1" />
    </linearGradient>
    <linearGradient id="purpleSide" x1="0%" y1="0%" x2="100%" y2="0%">
      <stop offset="0%" style="stop-color:#7D3C98;stop-opacity:1" />
      <stop offset="100%" style="stop-color:#5B2C6F;stop-opacity:1" />
    </linearGradient>
    <linearGradient id="goldTrim" x1="0%" y1="0%" x2="100%" y2="100%">
      <stop offset="0%" style="stop-color:#FFD700;stop-opacity:1" />
      <stop offset="100%" style="stop-color:#FFA500;stop-opacity:1" />
    </linearGradient>
    <filter id="blur"><feGaussianBlur stdDeviation="2"/></filter>
  </defs>
  
  <!-- Shadow -->
  <ellipse cx="200" cy="350" rx="125" ry="16" fill="#000" opacity="0.4" filter="url(#blur)"/>
  
  <!-- Ornate box -->
  <path d="M 95,175 L 200,115 L 305,175 L 200,235 Z" fill="url(#purpleMain)" stroke="#5B2C6F" stroke-width="2"/>
  <path d="M 200,115 L 305,175 L 305,285 L 200,225 Z" fill="url(#purpleTop)" stroke="#5B2C6F" stroke-width="2"/>
  <path d="M 95,175 L 200,235 L 200,345 L 95,285 Z" fill="url(#purpleSide)" stroke="#5B2C6F" stroke-width="2"/>
  
  <!-- Gold ornamental borders -->
  <path d="M 200,115 L 305,175 L 305,195 L 200,135 Z" fill="url(#goldTrim)" opacity="0.7"/>
  <path d="M 95,175 L 200,235 L 200,255 L 95,195 Z" fill="#B8860B" opacity="0.6"/>
  
  <!-- Base platform -->
  <path d="M 200,225 L 305,285 L 305,320 L 200,260 Z" fill="#6C3483" stroke="#4A235A" stroke-width="2"/>
  <path d="M 95,285 L 200,345 L 200,380 L 95,320 Z" fill="#5B2C6F" stroke="#4A235A" stroke-width="2"/>
  <path d="M 200,260 L 305,320 L 200,380 L 95,320 Z" fill="#512E5F" stroke="#4A235A" stroke-width="2"/>
  
  <!-- Royal crown emblem -->
  <g transform="translate(200, 190)">
    <!-- Crown base circle -->
    <circle r="42" fill="#4A235A" opacity="0.8"/>
    <circle r="38" fill="none" stroke="url(#goldTrim)" stroke-width="3"/>
    
    <!-- Crown -->
    <g transform="translate(0, -8)">
      <path d="M -28,-10 L -20,8 L -12,-5 L -4,8 L 4,8 L 12,-5 L 20,8 L 28,-10 L 24,-18 L 0,-25 L -24,-18 Z" 
            fill="url(#goldTrim)" stroke="#8B6914" stroke-width="1.5"/>
      <circle cx="-20" cy="-12" r="4" fill="#DC143C"/>
      <circle cx="0" cy="-20" r="5" fill="#4169E1"/>
      <circle cx="20" cy="-12" r="4" fill="#DC143C"/>
      
      <!-- Crown details -->
      <path d="M -24,-18 Q -24,-12 -20,-8 M 24,-18 Q 24,-12 20,-8 M 0,-25 L 0,-8" 
            stroke="#8B6914" stroke-width="1" fill="none"/>
    </g>
    
    <!-- Decorative scrollwork -->
    <path d="M -35,15 Q -30,20 -20,18 M 35,15 Q 30,20 20,18" 
          stroke="#FFD700" stroke-width="1.5" fill="none" opacity="0.6"/>
  </g>
  
  <!-- Decorative gold corners -->
  <circle cx="120" cy="190" r="4" fill="#FFD700" opacity="0.8"/>
  <circle cx="280" cy="190" r="4" fill="#FFD700" opacity="0.8"/>
  
  <!-- Velvet texture lines -->
  <path d="M 110,180 L 190,140" stroke="#B794F6" stroke-width="0.5" opacity="0.3"/>
  <path d="M 120,185 L 200,145" stroke="#B794F6" stroke-width="0.5" opacity="0.3"/>
  <path d="M 130,190 L 210,150" stroke="#B794F6" stroke-width="0.5" opacity="0.3"/>
  
  <!-- Highlights -->
  <path d="M 210,120 L 285,162 L 285,168 L 210,126 Z" fill="#FFF" opacity="0.15"/>
  <line x1="200" y1="115" x2="300" y2="173" stroke="#E8DAEF" stroke-width="1.5" opacity="0.3"/>
</svg>