<svg xmlns="http://www.w3.org/2000/svg" viewBox="0 0 400 400">
  <defs>
    <linearGradient id="goldMain" x1="0%" y1="0%" x2="100%" y2="100%">
      <stop offset="0%" style="stop-color:#FFE66D;stop-opacity:1" />
      <stop offset="40%" style="stop-color:#FFD700;stop-opacity:1" />
      <stop offset="60%" style="stop-color:#F4C430;stop-opacity:1" />
      <stop offset="100%" style="stop-color:#DAA520;stop-opacity:1" />
    </linearGradient>
    <linearGradient id="goldTop" x1="0%" y1="0%" x2="0%" y2="100%">
      <stop offset="0%" style="stop-color:#FFF8DC;stop-opacity:1" />
      <stop offset="100%" style="stop-color:#FFD700;stop-opacity:1" />
    </linearGradient>
    <linearGradient id="goldSide" x1="0%" y1="0%" x2="100%" y2="0%">
      <stop offset="0%" style="stop-color:#F4C430;stop-opacity:1" />
      <stop offset="100%" style="stop-color:#B8860B;stop-opacity:1" />
    </linearGradient>
    <filter id="blur"><feGaussianBlur stdDeviation="3"/></filter>
    <filter id="glow">
      <feGaussianBlur stdDeviation="4"/>
      <feMerge>
        <feMergeNode/>
        <feMergeNode in="SourceGraphic"/>
      </feMerge>
    </filter>
  </defs>
  
  <!-- Golden glow shadow -->
  <ellipse cx="200" cy="352" rx="135" ry="18" fill="#000" opacity="0.5" filter="url(#blur)"/>
  <ellipse cx="200" cy="348" rx="115" ry="14" fill="#FFD700" opacity="0.4" filter="url(#blur)"/>
  
  <!-- Ornate legendary chest -->
  <path d="M 90,170 L 200,110 L 310,170 L 200,230 Z" fill="url(#goldMain)" stroke="#8B6914" stroke-width="2.5"/>
  <path d="M 200,110 L 310,170 L 310,285 L 200,225 Z" fill="url(#goldTop)" stroke="#8B6914" stroke-width="2.5"/>
  <path d="M 90,170 L 200,230 L 200,345 L 90,285 Z" fill="url(#goldSide)" stroke="#8B6914" stroke-width="2.5"/>
  
  <!-- Decorative gold trim bands -->
  <path d="M 200,112 L 308,172 L 308,182 L 200,122 Z" fill="#B8860B" opacity="0.5"/>
  <path d="M 200,135 L 308,195 L 308,200 L 200,140 Z" fill="#FFE66D" opacity="0.3"/>
  
  <!-- Base -->
  <path d="M 200,225 L 310,285 L 310,320 L 200,260 Z" fill="#DAA520" stroke="#6B5A0D" stroke-width="2"/>
  <path d="M 90,285 L 200,345 L 200,380 L 90,320 Z" fill="#B8860B" stroke="#6B5A0D" stroke-width="2"/>
  <path d="M 200,260 L 310,320 L 200,380 L 90,320 Z" fill="#A07A1F" stroke="#6B5A0D" stroke-width="2"/>
  
  <!-- Legendary dragon emblem -->
  <g transform="translate(200, 185)">
    <circle r="50" fill="#6B5A0D" opacity="0.9"/>
    <circle r="47" fill="none" stroke="#FFD700" stroke-width="4"/>
    <circle r="42" fill="none" stroke="#FFF8DC" stroke-width="1.5" opacity="0.5"/>
    
    <!-- Medieval dragon -->
    <g transform="translate(0, 2)">
      <!-- Dragon body -->
      <ellipse cx="0" cy="5" rx="25" ry="22" fill="#8B4513" stroke="#654321" stroke-width="1.5"/>
      
      <!-- Dragon wings -->
      <path d="M -25,0 Q -40,-10 -35,-20 Q -30,-15 -25,-10 Q -22,-5 -25,0 Z" 
            fill="#B8860B" stroke="#8B6914" stroke-width="1" opacity="0.8"/>
      <path d="M 25,0 Q 40,-10 35,-20 Q 30,-15 25,-10 Q 22,-5 25,0 Z" 
            fill="#B8860B" stroke="#8B6914" stroke-width="1" opacity="0.8"/>
      
      <!-- Wing details -->
      <path d="M -30,-12 Q -25,-8 -25,-3" stroke="#654321" stroke-width="0.5" fill="none"/>
      <path d="M 30,-12 Q 25,-8 25,-3" stroke="#654321" stroke-width="0.5" fill="none"/>
      
      <!-- Dragon head -->
      <ellipse cx="0" cy="-8" rx="12" ry="14" fill="#8B4513" stroke="#654321" stroke-width="1.5"/>
      
      <!-- Dragon eyes (glowing) -->
      <circle cx="-5" cy="-10" r="2.5" fill="#FFD700"/>
      <circle cx="5" cy="-10" r="2.5" fill="#FFD700"/>
      <circle cx="-5" cy="-10" r="1.5" fill="#FF4500"/>
      <circle cx="5" cy="-10" r="1.5" fill="#FF4500"/>
      
      <!-- Snout and fire -->
      <ellipse cx="0" cy="-3" rx="6" ry="4" fill="#654321"/>
      <path d="M 0,0 Q 8,2 10,8 Q 12,4 14,10 Q 11,5 15,12" 
            stroke="#FF4500" stroke-width="2" fill="none" opacity="0.7"/>
      <path d="M 0,0 Q 6,1 8,5" 
            stroke="#FFA500" stroke-width="1.5" fill="none" opacity="0.9"/>
      
      <!-- Horns -->
      <path d="M -6,-18 L -8,-25 M 6,-18 L 8,-25" 
            stroke="#654321" stroke-width="2" stroke-linecap="round"/>
      
      <!-- Dragon tail -->
      <path d="M 0,25 Q 10,30 15,38 Q 12,32 18,40" 
            stroke="#8B4513" stroke-width="3" fill="none" stroke-linecap="round"/>
      <path d="M 18,40 L 16,35 L 20,38 Z" 
            fill="#B8860B"/>
    </g>
    
    <!-- Celtic knotwork border -->
    <g opacity="0.4">
      <path d="M -40,-5 Q -38,-15 -30,-18 Q -25,-15 -30,-10" 
            stroke="#FFD700" stroke-width="2" fill="none"/>
      <path d="M 40,-5 Q 38,-15 30,-18 Q 25,-15 30,-10" 
            stroke="#FFD700" stroke-width="2" fill="none"/>
    </g>
  </g>
  
  <!-- Ornamental rivets -->
  <circle cx="115" cy="185" r="4" fill="#8B6914" opacity="0.8"/>
  <circle cx="285" cy="185" r="4" fill="#8B6914" opacity="0.8"/>
  <circle cx="115" cy="185" r="2" fill="#FFD700" opacity="0.6"/>
  <circle cx="285" cy="185" r="2" fill="#FFD700" opacity="0.6"/>
  
  <!-- Antique texture scratches -->
  <path d="M 240,145 L 250,140" stroke="#B8860B" stroke-width="0.5" opacity="0.3"/>
  <path d="M 130,195 L 145,190" stroke="#B8860B" stroke-width="0.5" opacity="0.3"/>
  
  <!-- Highlights -->
  <path d="M 205,115 L 290,160 L 290,167 L 205,122 Z" fill="#FFF" opacity="0.25"/>
  <path d="M 210,120 L 280,158 L 280,163 L 210,125 Z" fill="#FFFACD" opacity="0.2"/>
  <line x1="200" y1="110" x2="305" y2="168" stroke="#FFFACD" stroke-width="2" opacity="0.4"/>
</svg>