<svg xmlns="http://www.w3.org/2000/svg" viewBox="0 0 400 400">
  <defs>
    <linearGradient id="darkMain" x1="0%" y1="0%" x2="100%" y2="100%">
      <stop offset="0%" style="stop-color:#2D3E50;stop-opacity:1" />
      <stop offset="40%" style="stop-color:#1A1A2E;stop-opacity:1" />
      <stop offset="60%" style="stop-color:#16213E;stop-opacity:1" />
      <stop offset="100%" style="stop-color:#0F1419;stop-opacity:1" />
    </linearGradient>
    <linearGradient id="darkTop" x1="0%" y1="0%" x2="0%" y2="100%">
      <stop offset="0%" style="stop-color:#34495E;stop-opacity:1" />
      <stop offset="100%" style="stop-color:#1A1A2E;stop-opacity:1" />
    </linearGradient>
    <linearGradient id="darkSide" x1="0%" y1="0%" x2="100%" y2="0%">
      <stop offset="0%" style="stop-color:#16213E;stop-opacity:1" />
      <stop offset="100%" style="stop-color:#0B0C10;stop-opacity:1" />
    </linearGradient>
    <linearGradient id="neon" x1="0%" y1="0%" x2="100%" y2="100%">
      <stop offset="0%" style="stop-color:#FF00FF;stop-opacity:1" />
      <stop offset="100%" style="stop-color:#00D4FF;stop-opacity:1" />
    </linearGradient>
    <filter id="blur"><feGaussianBlur stdDeviation="2"/></filter>
    <filter id="neonGlow">
      <feGaussianBlur stdDeviation="5"/>
      <feMerge>
        <feMergeNode/>
        <feMergeNode in="SourceGraphic"/>
      </feMerge>
    </filter>
  </defs>
  
  <!-- Neon glow shadow -->
  <ellipse cx="200" cy="350" rx="120" ry="15" fill="#000" opacity="0.6" filter="url(#blur)"/>
  <ellipse cx="200" cy="348" rx="100" ry="12" fill="#FF00FF" opacity="0.3" filter="url(#neonGlow)"/>
  
  <!-- Cyberpunk case -->
  <path d="M 95,175 L 200,115 L 305,175 L 200,235 Z" fill="url(#darkMain)" stroke="#000" stroke-width="2"/>
  <path d="M 200,115 L 305,175 L 305,285 L 200,225 Z" fill="url(#darkTop)" stroke="#000" stroke-width="2"/>
  <path d="M 95,175 L 200,235 L 200,345 L 95,285 Z" fill="url(#darkSide)" stroke="#000" stroke-width="2"/>
  
  <!-- Neon accent lines -->
  <path d="M 200,115 L 305,175 L 305,180 L 200,120 Z" fill="#FF00FF" opacity="0.6"/>
  <path d="M 95,175 L 200,235 L 200,240 L 95,180 Z" fill="#00D4FF" opacity="0.5"/>
  
  <!-- Base -->
  <path d="M 200,225 L 305,285 L 305,320 L 200,260 Z" fill="#16213E" stroke="#000" stroke-width="2"/>
  <path d="M 95,285 L 200,345 L 200,380 L 95,320 Z" fill="#0B0C10" stroke="#000" stroke-width="2"/>
  <path d="M 200,260 L 305,320 L 200,380 L 95,320 Z" fill="#0F1419" stroke="#000" stroke-width="2"/>
  
  <!-- Cyberpunk grid pattern -->
  <g opacity="0.2">
    <line x1="120" y1="185" x2="180" y2="155" stroke="#00D4FF" stroke-width="0.5"/>
    <line x1="130" y1="190" x2="190" y2="160" stroke="#00D4FF" stroke-width="0.5"/>
    <line x1="140" y1="195" x2="200" y2="165" stroke="#FF00FF" stroke-width="0.5"/>
    <line x1="220" y1="165" x2="280" y2="195" stroke="#FF00FF" stroke-width="0.5"/>
    <line x1="230" y1="160" x2="290" y2="190" stroke="#00D4FF" stroke-width="0.5"/>
  </g>
  
  <!-- Neon emblem -->
  <g transform="translate(200, 190)">
    <circle r="42" fill="#0F0F1F" opacity="0.95"/>
    <circle r="40" fill="none" stroke="url(#neon)" stroke-width="3" filter="url(#neonGlow)"/>
    <circle r="35" fill="none" stroke="#FF00FF" stroke-width="1" opacity="0.5"/>
    
    <!-- Cyberpunk triangular design -->
    <g filter="url(#neonGlow)">
      <!-- Outer triangles -->
      <polygon points="0,-30 15,-10 -15,-10" fill="none" stroke="#FF00FF" stroke-width="2"/>
      <polygon points="-30,0 -10,15 -10,-15" fill="none" stroke="#00D4FF" stroke-width="2"/>
      <polygon points="30,0 10,15 10,-15" fill="none" stroke="#00D4FF" stroke-width="2"/>
      <polygon points="0,30 15,10 -15,10" fill="none" stroke="#FF00FF" stroke-width="2"/>
      
      <!-- Inner diamond -->
      <polygon points="0,-15 12,0 0,15 -12,0" fill="none" stroke="#FF00FF" stroke-width="2"/>
      <polygon points="0,-12 9,0 0,12 -9,0" fill="#FF00FF" opacity="0.3"/>
      
      <!-- Center dot -->
      <circle r="3" fill="#00D4FF"/>
    </g>
    
    <!-- Circuit lines -->
    <g opacity="0.4">
      <path d="M -20,-20 L -10,-10 M 20,-20 L 10,-10 M -20,20 L -10,10 M 20,20 L 10,10" 
            stroke="#00D4FF" stroke-width="1"/>
    </g>
  </g>
  
  <!-- Tech panel details -->
  <rect x="110" y="185" width="15" height="3" fill="#00D4FF" opacity="0.6"/>
  <rect x="275" y="185" width="15" height="3" fill="#FF00FF" opacity="0.6"/>
  <rect x="110" y="190" width="10" height="2" fill="#00D4FF" opacity="0.4"/>
  <rect x="280" y="190" width="10" height="2" fill="#FF00FF" opacity="0.4"/>
  
  <!-- Glitch effect -->
  <g opacity="0.3">
    <rect x="250" y="155" width="20" height="1" fill="#FF00FF"/>
    <rect x="252" y="158" width="15" height="1" fill="#00D4FF"/>
  </g>
  
  <!-- Highlights -->
  <path d="M 210,120 L 285,162 L 285,168 L 210,126 Z" fill="#FFF" opacity="0.08"/>
  <line x1="200" y1="115" x2="300" y2="173" stroke="#00D4FF" stroke-width="1" opacity="0.4"/>
</svg>