<svg xmlns="http://www.w3.org/2000/svg" viewBox="0 0 400 400">
  <defs>
    <linearGradient id="redMain" x1="0%" y1="0%" x2="100%" y2="100%">
      <stop offset="0%" style="stop-color:#FF6347;stop-opacity:1" />
      <stop offset="40%" style="stop-color:#FF4500;stop-opacity:1" />
      <stop offset="60%" style="stop-color:#DC143C;stop-opacity:1" />
      <stop offset="100%" style="stop-color:#8B0000;stop-opacity:1" />
    </linearGradient>
    <linearGradient id="redTop" x1="0%" y1="0%" x2="0%" y2="100%">
      <stop offset="0%" style="stop-color:#FF7F50;stop-opacity:1" />
      <stop offset="100%" style="stop-color:#FF4500;stop-opacity:1" />
    </linearGradient>
    <linearGradient id="redSide" x1="0%" y1="0%" x2="100%" y2="0%">
      <stop offset="0%" style="stop-color:#C41E3A;stop-opacity:1" />
      <stop offset="100%" style="stop-color:#8B0000;stop-opacity:1" />
    </linearGradient>
    <radialGradient id="fireGlow">
      <stop offset="0%" style="stop-color:#FFA500;stop-opacity:0.8" />
      <stop offset="100%" style="stop-color:#FF4500;stop-opacity:0" />
    </radialGradient>
    <filter id="blur"><feGaussianBlur stdDeviation="2.5"/></filter>
  </defs>
  
  <!-- Fiery shadow -->
  <ellipse cx="200" cy="352" rx="130" ry="18" fill="#000" opacity="0.5" filter="url(#blur)"/>
  <ellipse cx="200" cy="348" rx="110" ry="14" fill="#FF4500" opacity="0.3" filter="url(#blur)"/>
  
  <!-- Isometric case with battle-worn texture -->
  <path d="M 95,175 L 200,115 L 305,175 L 200,235 Z" fill="url(#redMain)" stroke="#5D0000" stroke-width="2"/>
  <path d="M 200,115 L 305,175 L 305,285 L 200,225 Z" fill="url(#redTop)" stroke="#5D0000" stroke-width="2"/>
  <path d="M 95,175 L 200,235 L 200,345 L 95,285 Z" fill="url(#redSide)" stroke="#5D0000" stroke-width="2"/>
  
  <!-- Base -->
  <path d="M 200,225 L 305,285 L 305,320 L 200,260 Z" fill="#A0282D" stroke="#3D0000" stroke-width="2"/>
  <path d="M 95,285 L 200,345 L 200,380 L 95,320 Z" fill="#8B0000" stroke="#3D0000" stroke-width="2"/>
  <path d="M 200,260 L 305,320 L 200,380 L 95,320 Z" fill="#6D0000" stroke="#3D0000" stroke-width="2"/>
  
  <!-- Scratches and wear marks -->
  <path d="M 120,190 L 140,180" stroke="#3D0000" stroke-width="1" opacity="0.4"/>
  <path d="M 250,160 L 270,150" stroke="#3D0000" stroke-width="1.5" opacity="0.4"/>
  <path d="M 180,215 L 195,208" stroke="#3D0000" stroke-width="1" opacity="0.3"/>
  
  <!-- Wolf head silhouette emblem -->
  <g transform="translate(200, 190)">
    <circle r="45" fill="#2D0000" opacity="0.9"/>
    <circle r="42" fill="none" stroke="#000" stroke-width="3"/>
    <circle r="38" fill="none" stroke="#8B0000" stroke-width="1.5" opacity="0.5"/>
    
    <!-- Menacing wolf head -->
    <g transform="translate(0, 3)">
      <!-- Head shape -->
      <ellipse cx="0" cy="0" rx="28" ry="32" fill="#000"/>
      
      <!-- Ears -->
      <polygon points="-20,-25 -12,-8 -24,-15" fill="#000"/>
      <polygon points="20,-25 12,-8 24,-15" fill="#000"/>
      
      <!-- Glowing red eyes -->
      <ellipse cx="-10" cy="-8" rx="5" ry="8" fill="#FF0000" filter="url(#blur)"/>
      <ellipse cx="10" cy="-8" rx="5" ry="8" fill="#FF0000" filter="url(#blur)"/>
      <ellipse cx="-10" cy="-8" rx="3" ry="6" fill="#FF4500"/>
      <ellipse cx="10" cy="-8" rx="3" ry="6" fill="#FF4500"/>
      
      <!-- Snout -->
      <ellipse cx="0" cy="8" rx="14" ry="16" fill="#000"/>
      <ellipse cx="0" cy="6" rx="4" ry="5" fill="#1A0000"/>
      
      <!-- Fangs -->
      <polygon points="-6,15 -3,25 0,15" fill="#E8E8E8"/>
      <polygon points="6,15 3,25 0,15" fill="#E8E8E8"/>
      <polygon points="-10,18 -8,24 -6,18" fill="#D3D3D3"/>
      <polygon points="10,18 8,24 6,18" fill="#D3D3D3"/>
    </g>
  </g>
  
  <!-- Flame effects on sides -->
  <g opacity="0.6">
    <path d="M 110,200 Q 115,185 110,175 Q 108,182 110,190 Q 112,195 110,200 Z" fill="#FFA500"/>
    <path d="M 290,200 Q 285,185 290,175 Q 292,182 290,190 Q 288,195 290,200 Z" fill="#FFA500"/>
  </g>
  
  <!-- Metal studs -->
  <circle cx="125" cy="195" r="3" fill="#3D0000" opacity="0.8"/>
  <circle cx="275" cy="195" r="3" fill="#3D0000" opacity="0.8"/>
  
  <!-- Highlights -->
  <path d="M 210,120 L 285,162 L 285,168 L 210,126 Z" fill="#FFF" opacity="0.1"/>
  <line x1="200" y1="115" x2="300" y2="173" stroke="#FF7F50" stroke-width="1.5" opacity="0.3"/>
</svg>